Coordinates
version=1
nRows=49
nColumns=12
inDegrees=yes

Units are S.I. units (second, meters, Newtons, ...)
Angles are in degrees

endheader
time	SC_y	SC_z	SC_x	AC_y	AC_z	AC_x	GH_y	GH_z	GH_yy	EL_x	PS_y
       0.0              -26.59          28.96          37.09           34.5         -6.107         -8.812         -63.04          87.51         -77.73          88.53          78.71
    0.0443              -26.59          28.96          37.09           34.5         -6.105         -8.811         -63.04           87.5         -77.73          88.52          78.71
    0.0886              -26.59          28.96          37.08           34.5         -6.104         -8.809         -63.05          87.49         -77.74          88.52          78.72
    0.1329               -26.6          28.96          37.08           34.5         -6.102         -8.808         -63.05          87.49         -77.75          88.51          78.72
    0.1772               -26.6          28.96          37.07           34.5           -6.1         -8.806         -63.05          87.48         -77.77          88.51          78.72
    0.2215               -26.6          28.96          37.07           34.5         -6.098         -8.804         -63.06          87.47         -77.78           88.5          78.72
    0.2658              -26.61          28.96          37.06           34.5         -6.096         -8.803         -63.07          87.46         -77.79          88.49          78.73
    0.3101              -26.61          28.96          37.05           34.5         -6.094         -8.801         -63.07          87.45          -77.8          88.49          78.73
    0.3544              -26.62          28.96          37.05           34.5         -6.092         -8.798         -63.08          87.44         -77.82          88.48          78.73
    0.3987              -26.62          28.96          37.04           34.5         -6.089         -8.796         -63.08          87.42         -77.83          88.47          78.74
     0.443              -26.63          28.95          37.03           34.5         -6.087         -8.794         -63.09          87.41         -77.85          88.46          78.74
    0.4873              -26.63          28.95          37.02           34.5         -6.084         -8.791          -63.1           87.4         -77.87          88.45          78.74
    0.5316              -26.64          28.95          37.01           34.5         -6.081         -8.788         -63.11          87.38         -77.89          88.44          78.75
    0.5759              -26.64          28.95           37.0           34.5         -6.077         -8.785         -63.12          87.37         -77.91          88.43          78.75
    0.6202              -26.65          28.95          36.99          34.49         -6.074         -8.782         -63.12          87.35         -77.93          88.42          78.76
    0.6645              -26.66          28.95          36.98          34.49          -6.07         -8.778         -63.14          87.33         -77.96          88.41          78.76
    0.7088              -26.66          28.95          36.96          34.49         -6.066         -8.774         -63.15          87.31         -77.98           88.4          78.77
    0.7531              -26.67          28.94          36.95          34.49         -6.061          -8.77         -63.16          87.29         -78.01          88.38          78.78
    0.7974              -26.68          28.94          36.93          34.49         -6.056         -8.765         -63.17          87.26         -78.04          88.37          78.78
    0.8417              -26.69          28.94          36.91          34.49         -6.051          -8.76         -63.19          87.24         -78.08          88.35          78.79
     0.886               -26.7          28.94           36.9          34.49         -6.045         -8.755          -63.2          87.21         -78.12          88.33           78.8
    0.9303              -26.72          28.93          36.87          34.48         -6.038         -8.749         -63.22          87.17         -78.16          88.31          78.81
    0.9746              -26.73          28.93          36.85          34.48          -6.03         -8.742         -63.24          87.14          -78.2          88.28          78.82
     1.019              -26.75          28.93          36.82          34.48         -6.022         -8.734         -63.26           87.1         -78.25          88.26          78.83
     1.063              -26.76          28.92           36.8          34.48         -6.013         -8.726         -63.29          87.06         -78.31          88.23          78.84
     1.108              -26.78          28.92          36.76          34.48         -6.003         -8.716         -63.31          87.01         -78.38           88.2          78.86
     1.152               -26.8          28.91          36.73          34.47         -5.992         -8.706         -63.34          86.95         -78.45          88.16          78.87
     1.196              -26.83          28.91          36.69          34.47         -5.979         -8.694         -63.38          86.89         -78.53          88.12          78.89
      1.24              -26.85           28.9          36.64          34.46         -5.965         -8.681         -63.42          86.82         -78.62          88.07          78.91
     1.285              -26.88           28.9          36.59          34.46         -5.948         -8.666         -63.46          86.74         -78.72          88.02          78.93
     1.329              -26.92          28.89          36.53          34.45          -5.93         -8.648         -63.51          86.65         -78.84          87.96          78.96
     1.373              -26.96          28.88          36.46          34.45         -5.908         -8.629         -63.57          86.55         -78.97          87.89          78.99
     1.418               -27.0          28.87          36.38          34.44         -5.883         -8.606         -63.63          86.43         -79.13          87.81          79.02
     1.462              -27.06          28.86          36.29          34.43         -5.855         -8.579         -63.71          86.29         -79.31          87.72          79.06
     1.506              -27.12          28.84          36.19          34.42         -5.821         -8.548          -63.8          86.12         -79.52          87.61          79.11
     1.551              -27.19          28.82          36.06          34.41         -5.781         -8.511          -63.9          85.93         -79.77          87.49          79.17
     1.595              -27.28           28.8          35.91           34.4         -5.734         -8.468         -64.03           85.7         -80.06          87.34          79.23
     1.639              -27.38          28.78          35.73          34.38         -5.678         -8.415         -64.18          85.43         -80.42          87.16          79.31
     1.683              -27.51          28.75          35.51          34.36          -5.61         -8.352         -64.36           85.1         -80.85          86.94          79.41
     1.728              -27.67          28.72          35.25          34.34         -5.526         -8.275         -64.59          84.69         -81.37          86.67          79.52
     1.772              -27.86          28.67          34.92          34.31         -5.423          -8.18         -64.86          84.19         -82.02          86.34          79.67
     1.816               -28.1          28.62          34.52          34.28         -5.295         -8.061          -65.2          83.57         -82.83          85.93          79.84
     1.861               -28.4          28.55           34.0          34.23         -5.133         -7.911         -65.63          82.78         -83.84          85.42          80.07
     1.905              -28.78          28.46          33.35          34.17         -4.927         -7.721         -66.18          81.79         -85.13          84.76          80.36
     1.949              -29.27          28.35          32.51           34.1         -4.664         -7.477         -66.88          80.51         -86.79          83.92          80.72
     1.994               -29.9           28.2          31.44           34.0         -4.326         -7.165         -67.78          78.87         -88.91          82.84          81.19
     2.038               -30.7          28.02          30.07          33.88         -3.894         -6.765         -68.93          76.77         -91.62          81.46          81.79
     2.082               -31.7          27.79          28.35          33.73         -3.352         -6.263         -70.38          74.14         -95.03          79.73          82.55
     2.126              -32.93          27.51          26.25          33.54          -2.69         -5.651         -72.14          70.93         -99.19          77.61          83.47
